{
	"asset":{
		"version":"2.0",
		"generator":"Created using the official Cinema 4D glTF Exporter 1.000x284978"
	},
	"scenes":[{
		"nodes":[0]
	}],
	"nodes":[{
		"name":"Badge",
		"translation":[-0.12839145958423615,
		-3.46303653717041,
		-21.50000762939453],
		"rotation":[0.0,
		-0.4369964003562927,
		0.0,
		0.8994632363319397],
		"scale":[1.0,
		1.0,
		1.0],
		"children":[1,
		4,
		6]
	},
	{
		"name":"Boole",
		"translation":[0.12839145958423615,
		3.46303653717041,
		-37.93876647949219],
		"rotation":[0.0,
		-1.0,
		0.0,
		3.82856880455694e-16],
		"scale":[1.0,
		1.0,
		1.0],
		"children":[2]
	},
	{
		"name":"Subdivision Surface",
		"translation":[0.0,
		0.0,
		-5.561224937438965],
		"rotation":[0.0,
		0.0,
		0.0,
		-1.0],
		"scale":[1.0,
		1.0,
		1.0],
		"children":[3]
	},
	{
		"name":"Lathe.1",
		"mesh":0,
		"translation":[6.307775497436523,
		-38.61720657348633,
		-34.81951141357422],
		"rotation":[0.0,
		-0.7071067690849304,
		0.0,
		-0.7071067690849304],
		"scale":[1.0,
		1.0,
		1.0]
	},
	{
		"name":"EternalLogo",
		"translation":[0.12839145958423615,
		3.276589870452881,
		-20.793371200561525],
		"rotation":[0.0,
		-1.0,
		0.0,
		-6.123234262925839e-17],
		"scale":[1.0,
		1.0,
		1.0],
		"children":[5]
	},
	{
		"name":"EternalLogo",
		"mesh":1
	},
	{
		"name":"Hex",
		"mesh":2,
		"translation":[0.12839145958423615,
		3.46303653717041,
		21.50000762939453],
		"rotation":[0.0,
		0.0,
		0.258819043636322,
		0.9659258127212524],
		"scale":[1.0,
		1.0,
		1.0]
	}],
	"meshes":[{
		"name":"Lathe.1",
		"primitives":[{
			"attributes":{
				"POSITION":7,
				"NORMAL":8,
				"TEXCOORD_0":9
			},
			"indices":6,
			"material":0
		}]
	},
	{
		"name":"EternalLogo",
		"primitives":[{
			"attributes":{
				"POSITION":11,
				"NORMAL":12,
				"TEXCOORD_0":13
			},
			"indices":10,
			"material":1
		}]
	},
	{
		"name":"Hex",
		"primitives":[{
			"attributes":{
				"POSITION":15,
				"NORMAL":16,
				"TEXCOORD_0":17
			},
			"indices":14,
			"material":2
		}]
	}],
	"accessors":[{
		"bufferView":0,
		"type":"SCALAR",
		"componentType":5126,
		"count":4,
		"byteOffset":0,
		"min":[0.0],
		"max":[6.666666507720947]
	},
	{
		"bufferView":0,
		"type":"VEC3",
		"componentType":5126,
		"count":4,
		"byteOffset":16,
		"min":[-0.12839145958423615,
		-3.46303653717041,
		-21.50000762939453],
		"max":[-0.12839145958423615,
		-3.46303653717041,
		-21.50000762939453]
	},
	{
		"bufferView":1,
		"type":"SCALAR",
		"componentType":5126,
		"count":9,
		"byteOffset":0,
		"min":[0.0],
		"max":[6.666666507720947]
	},
	{
		"bufferView":1,
		"type":"VEC4",
		"componentType":5126,
		"count":9,
		"byteOffset":36,
		"min":[0.0,
		-1.0,
		0.0,
		-0.08715574443340302],
		"max":[0.0,
		0.08715574443340302,
		0.0,
		1.0]
	},
	{
		"bufferView":2,
		"type":"SCALAR",
		"componentType":5126,
		"count":4,
		"byteOffset":0,
		"min":[0.0],
		"max":[6.666666507720947]
	},
	{
		"bufferView":2,
		"type":"VEC3",
		"componentType":5126,
		"count":4,
		"byteOffset":16,
		"min":[1.0,
		1.0,
		1.0],
		"max":[1.0,
		1.0,
		1.0]
	},
	{
		"bufferView":3,
		"type":"SCALAR",
		"componentType":5123,
		"count":44742,
		"byteOffset":0,
		"min":[0],
		"max":[11807]
	},
	{
		"bufferView":4,
		"type":"VEC3",
		"componentType":5126,
		"count":11808,
		"byteOffset":0,
		"min":[-18.267499923706056,
		-87.5909423828125,
		-73.02363586425781],
		"max":[64.3386001586914,
		168.8648223876953,
		77.67996215820313]
	},
	{
		"bufferView":4,
		"type":"VEC3",
		"componentType":5126,
		"count":11808,
		"byteOffset":12,
		"min":[-1.0,
		-1.0,
		-0.9999992251396179],
		"max":[0.9999915361404419,
		1.0,
		0.9999995827674866]
	},
	{
		"bufferView":4,
		"type":"VEC2",
		"componentType":5126,
		"count":11808,
		"byteOffset":24,
		"min":[0.0,
		0.0],
		"max":[1.0,
		1.0]
	},
	{
		"bufferView":5,
		"type":"SCALAR",
		"componentType":5123,
		"count":1356,
		"byteOffset":0,
		"min":[0],
		"max":[260]
	},
	{
		"bufferView":6,
		"type":"VEC3",
		"componentType":5126,
		"count":261,
		"byteOffset":0,
		"min":[-106.81232452392578,
		-106.81232452392578,
		-14.001665115356446],
		"max":[106.81232452392578,
		106.81232452392578,
		10.501249313354493]
	},
	{
		"bufferView":6,
		"type":"VEC3",
		"componentType":5126,
		"count":261,
		"byteOffset":12,
		"min":[-0.8944271802902222,
		-0.8944271802902222,
		-1.0],
		"max":[0.8944271802902222,
		0.8944271802902222,
		1.0]
	},
	{
		"bufferView":6,
		"type":"VEC2",
		"componentType":5126,
		"count":261,
		"byteOffset":24,
		"min":[0.0,
		0.0],
		"max":[1.5,
		1.5]
	},
	{
		"bufferView":7,
		"type":"SCALAR",
		"componentType":5123,
		"count":1140,
		"byteOffset":0,
		"min":[0],
		"max":[225]
	},
	{
		"bufferView":8,
		"type":"VEC3",
		"componentType":5126,
		"count":226,
		"byteOffset":0,
		"min":[-239.5,
		-207.84609985351563,
		-38.400001525878909],
		"max":[239.5,
		207.84609985351563,
		4.854201793670654]
	},
	{
		"bufferView":8,
		"type":"VEC3",
		"componentType":5126,
		"count":226,
		"byteOffset":12,
		"min":[-0.9836287498474121,
		-0.9837785363197327,
		-1.0],
		"max":[0.9836287498474121,
		0.9837785363197327,
		1.0]
	},
	{
		"bufferView":8,
		"type":"VEC2",
		"componentType":5126,
		"count":226,
		"byteOffset":24,
		"min":[-0.0007625528378412128,
		-0.05162110924720764],
		"max":[1.0007625818252564,
		0.9739582538604736]
	}],
	"animations":[{
		"samplers":[{
			"input":0,
			"interpolation":"LINEAR",
			"output":1
		},
		{
			"input":2,
			"interpolation":"LINEAR",
			"output":3
		},
		{
			"input":4,
			"interpolation":"LINEAR",
			"output":5
		}],
		"channels":[{
			"sampler":0,
			"target":{
				"node":0,
				"path":"translation"
			}
		},
		{
			"sampler":1,
			"target":{
				"node":0,
				"path":"rotation"
			}
		},
		{
			"sampler":2,
			"target":{
				"node":0,
				"path":"scale"
			}
		}]
	}],
	"bufferViews":[{
		"buffer":0,
		"byteOffset":0,
		"byteLength":64
	},
	{
		"buffer":0,
		"byteOffset":64,
		"byteLength":180
	},
	{
		"buffer":0,
		"byteOffset":244,
		"byteLength":64
	},
	{
		"buffer":1,
		"byteOffset":0,
		"byteLength":89484,
		"target":34963
	},
	{
		"buffer":1,
		"byteOffset":89484,
		"byteLength":377856,
		"target":34962,
		"byteStride":32
	},
	{
		"buffer":2,
		"byteOffset":0,
		"byteLength":2712,
		"target":34963
	},
	{
		"buffer":2,
		"byteOffset":2712,
		"byteLength":8352,
		"target":34962,
		"byteStride":32
	},
	{
		"buffer":3,
		"byteOffset":0,
		"byteLength":2280,
		"target":34963
	},
	{
		"buffer":3,
		"byteOffset":2280,
		"byteLength":7232,
		"target":34962,
		"byteStride":32
	}],
	"buffers":[{
		"uri":"data:application/octet-stream;base64,",
		"byteLength":308
	},
	{
		"uri":"data:application/octet-stream;base64,",
		"byteLength":467340
	},
	{
		"uri":"data:application/octet-stream;base64,",
		"byteLength":11064
	},
	{
		"uri":"data:application/octet-stream;base64,",
		"byteLength":9512
	}],
	"materials":[{
		"pbrMetallicRoughness":{
			"baseColorFactor":[1.0,
			1.0,
			1.0,
			1.0],
			"metallicFactor":1.0,
			"roughnessFactor":1.0
		},
		"emissiveFactor":[0.0,
		0.0,
		0.0],
		"alphaMode":"OPAQUE",
		"doubleSided":false,
		"name":""
	},
	{
		"pbrMetallicRoughness":{
			"baseColorFactor":[1.0,
			1.0,
			1.0,
			1.0],
			"metallicFactor":1.0,
			"roughnessFactor":1.0
		},
		"emissiveFactor":[0.0,
		0.0,
		0.0],
		"alphaMode":"OPAQUE",
		"doubleSided":false,
		"name":""
	},
	{
		"pbrMetallicRoughness":{
			"baseColorFactor":[1.0,
			1.0,
			1.0,
			1.0],
			"metallicFactor":1.0,
			"roughnessFactor":1.0
		},
		"emissiveFactor":[0.0,
		0.0,
		0.0],
		"alphaMode":"OPAQUE",
		"doubleSided":false,
		"name":""
	}]
}