{
	"asset":{
		"version":"2.0",
		"generator":"Created using the official Cinema 4D glTF Exporter 1.000x284978"
	},
	"scenes":[{
		"nodes":[0]
	}],
	"nodes":[{
		"name":"Badge",
		"translation":[0.0,
		0.0,
		0.0],
		"rotation":[0.0,
		-1.0,
		0.0,
		-6.123234262925839e-17],
		"scale":[1.0,
		1.0,
		1.0],
		"children":[1,
		2,
		5]
	},
	{
		"name":"Hex",
		"mesh":0,
		"translation":[-0.03864240646362305,
		3.46303653717041,
		21.601808547973634],
		"rotation":[0.0,
		0.0,
		0.258819043636322,
		0.9659258127212524],
		"scale":[1.0,
		1.0,
		1.0]
	},
	{
		"name":"Boole.1",
		"translation":[0.10452578961849213,
		116.3148193359375,
		-0.10304267704486847],
		"rotation":[0.0,
		0.0,
		0.0,
		-1.0],
		"scale":[1.0,
		1.0,
		1.0],
		"children":[3,
		4]
	},
	{
		"name":"queen",
		"mesh":1
	},
	{
		"name":"Cube",
		"mesh":2,
		"translation":[-0.14316819608211518,
		-112.8517837524414,
		-110.14996337890625],
		"rotation":[0.0,
		0.0,
		0.0,
		-1.0],
		"scale":[1.0,
		1.0,
		1.0]
	},
	{
		"name":"Extrude",
		"translation":[-1.9322868585586548,
		-0.8027228713035584,
		-29.275915145874025],
		"rotation":[0.0,
		-1.0,
		0.0,
		-5.053215392444312e-16],
		"scale":[1.0,
		1.0,
		1.0],
		"children":[6]
	},
	{
		"name":"Extrude",
		"mesh":3
	}],
	"meshes":[{
		"name":"Hex",
		"primitives":[{
			"attributes":{
				"POSITION":7,
				"NORMAL":8,
				"TEXCOORD_0":9
			},
			"indices":6,
			"material":0
		}]
	},
	{
		"name":"queen",
		"primitives":[{
			"attributes":{
				"POSITION":11,
				"NORMAL":12,
				"TEXCOORD_0":13
			},
			"indices":10,
			"material":1
		}]
	},
	{
		"name":"Cube",
		"primitives":[{
			"attributes":{
				"POSITION":15,
				"NORMAL":16,
				"TEXCOORD_0":17
			},
			"indices":14
		}]
	},
	{
		"name":"Extrude",
		"primitives":[{
			"attributes":{
				"POSITION":19,
				"NORMAL":20,
				"TEXCOORD_0":21
			},
			"indices":18,
			"material":2
		}]
	}],
	"accessors":[{
		"bufferView":0,
		"type":"SCALAR",
		"componentType":5126,
		"count":6,
		"byteOffset":0,
		"min":[0.0],
		"max":[3.8333332538604738]
	},
	{
		"bufferView":0,
		"type":"VEC3",
		"componentType":5126,
		"count":6,
		"byteOffset":24,
		"min":[0.0,
		0.0,
		0.0],
		"max":[0.0,
		0.0,
		0.0]
	},
	{
		"bufferView":1,
		"type":"SCALAR",
		"componentType":5126,
		"count":7,
		"byteOffset":0,
		"min":[0.0],
		"max":[3.8333332538604738]
	},
	{
		"bufferView":1,
		"type":"VEC4",
		"componentType":5126,
		"count":7,
		"byteOffset":28,
		"min":[0.0,
		-1.0,
		0.0,
		-0.1736481785774231],
		"max":[0.0,
		0.13052618503570558,
		0.0,
		1.0]
	},
	{
		"bufferView":2,
		"type":"SCALAR",
		"componentType":5126,
		"count":6,
		"byteOffset":0,
		"min":[0.0],
		"max":[3.8333332538604738]
	},
	{
		"bufferView":2,
		"type":"VEC3",
		"componentType":5126,
		"count":6,
		"byteOffset":24,
		"min":[1.0,
		1.0,
		1.0],
		"max":[1.0,
		1.0,
		1.0]
	},
	{
		"bufferView":3,
		"type":"SCALAR",
		"componentType":5123,
		"count":888,
		"byteOffset":0,
		"min":[0],
		"max":[181]
	},
	{
		"bufferView":4,
		"type":"VEC3",
		"componentType":5126,
		"count":182,
		"byteOffset":0,
		"min":[-239.5,
		-207.84609985351563,
		-38.400001525878909],
		"max":[239.5,
		207.84609985351563,
		4.854201793670654]
	},
	{
		"bufferView":4,
		"type":"VEC3",
		"componentType":5126,
		"count":182,
		"byteOffset":12,
		"min":[-0.9836287498474121,
		-0.9837785363197327,
		-1.0],
		"max":[0.9836287498474121,
		0.9837785363197327,
		1.0]
	},
	{
		"bufferView":4,
		"type":"VEC2",
		"componentType":5126,
		"count":182,
		"byteOffset":24,
		"min":[-0.0007625528378412128,
		-0.05162110924720764],
		"max":[1.0007625818252564,
		0.9739582538604736]
	},
	{
		"bufferView":5,
		"type":"SCALAR",
		"componentType":5123,
		"count":23799,
		"byteOffset":0,
		"min":[0],
		"max":[4822]
	},
	{
		"bufferView":6,
		"type":"VEC3",
		"componentType":5126,
		"count":4823,
		"byteOffset":0,
		"min":[-61.00387954711914,
		-247.13699340820313,
		-10.149964332580567],
		"max":[60.75635528564453,
		51.954647064208987,
		60.8801155090332]
	},
	{
		"bufferView":6,
		"type":"VEC3",
		"componentType":5126,
		"count":4823,
		"byteOffset":12,
		"min":[-1.0,
		-1.0,
		-0.9977130889892578],
		"max":[1.0,
		1.0,
		0.9999998211860657]
	},
	{
		"bufferView":6,
		"type":"VEC2",
		"componentType":5126,
		"count":4823,
		"byteOffset":24,
		"min":[0.0,
		0.0],
		"max":[1.0,
		1.0]
	},
	{
		"bufferView":7,
		"type":"SCALAR",
		"componentType":5123,
		"count":9,
		"byteOffset":0,
		"min":[1],
		"max":[10]
	},
	{
		"bufferView":8,
		"type":"VEC3",
		"componentType":5126,
		"count":14,
		"byteOffset":0,
		"min":[-51.00790786743164,
		-134.2852020263672,
		100.0],
		"max":[58.8181037902832,
		-134.11585998535157,
		100.0]
	},
	{
		"bufferView":8,
		"type":"VEC3",
		"componentType":5126,
		"count":14,
		"byteOffset":12,
		"min":[0.0,
		0.0,
		0.0],
		"max":[0.0,
		0.0,
		1.0]
	},
	{
		"bufferView":8,
		"type":"VEC2",
		"componentType":5126,
		"count":14,
		"byteOffset":24,
		"min":[0.0,
		0.0],
		"max":[0.7940905094146729,
		0.9179264307022095]
	},
	{
		"bufferView":9,
		"type":"SCALAR",
		"componentType":5123,
		"count":1356,
		"byteOffset":0,
		"min":[0],
		"max":[260]
	},
	{
		"bufferView":10,
		"type":"VEC3",
		"componentType":5126,
		"count":261,
		"byteOffset":0,
		"min":[-106.81232452392578,
		-106.81232452392578,
		-14.001665115356446],
		"max":[106.81232452392578,
		106.81232452392578,
		10.501249313354493]
	},
	{
		"bufferView":10,
		"type":"VEC3",
		"componentType":5126,
		"count":261,
		"byteOffset":12,
		"min":[-0.8944271802902222,
		-0.8944271802902222,
		-1.0],
		"max":[0.8944271802902222,
		0.8944271802902222,
		1.0]
	},
	{
		"bufferView":10,
		"type":"VEC2",
		"componentType":5126,
		"count":261,
		"byteOffset":24,
		"min":[0.0,
		0.0],
		"max":[1.5,
		1.5]
	}],
	"animations":[{
		"samplers":[{
			"input":0,
			"interpolation":"LINEAR",
			"output":1
		},
		{
			"input":2,
			"interpolation":"LINEAR",
			"output":3
		},
		{
			"input":4,
			"interpolation":"LINEAR",
			"output":5
		}],
		"channels":[{
			"sampler":0,
			"target":{
				"node":0,
				"path":"translation"
			}
		},
		{
			"sampler":1,
			"target":{
				"node":0,
				"path":"rotation"
			}
		},
		{
			"sampler":2,
			"target":{
				"node":0,
				"path":"scale"
			}
		}]
	}],
	"bufferViews":[{
		"buffer":0,
		"byteOffset":0,
		"byteLength":96
	},
	{
		"buffer":0,
		"byteOffset":96,
		"byteLength":140
	},
	{
		"buffer":0,
		"byteOffset":236,
		"byteLength":96
	},
	{
		"buffer":1,
		"byteOffset":0,
		"byteLength":1776,
		"target":34963
	},
	{
		"buffer":1,
		"byteOffset":1776,
		"byteLength":5824,
		"target":34962,
		"byteStride":32
	},
	{
		"buffer":2,
		"byteOffset":0,
		"byteLength":47598,
		"target":34963
	},
	{
		"buffer":2,
		"byteOffset":47600,
		"byteLength":154336,
		"target":34962,
		"byteStride":32
	},
	{
		"buffer":3,
		"byteOffset":0,
		"byteLength":18,
		"target":34963
	},
	{
		"buffer":3,
		"byteOffset":20,
		"byteLength":448,
		"target":34962,
		"byteStride":32
	},
	{
		"buffer":4,
		"byteOffset":0,
		"byteLength":2712,
		"target":34963
	},
	{
		"buffer":4,
		"byteOffset":2712,
		"byteLength":8352,
		"target":34962,
		"byteStride":32
	}],
	"buffers":[{
		"uri":"data:application/octet-stream;base64,",
		"byteLength":332
	},
	{
		"uri":"data:application/octet-stream;base64,",
		"byteLength":7600
	},
	{
		"uri":"data:application/octet-stream;base64,",
		"byteLength":201936
	},
	{
		"uri":"data:application/octet-stream;base64,",
		"byteLength":468
	},
	{
		"uri":"data:application/octet-stream;base64,",
		"byteLength":11064
	}],
	"materials":[{
		"pbrMetallicRoughness":{
			"baseColorFactor":[1.0,
			1.0,
			1.0,
			1.0],
			"metallicFactor":1.0,
			"roughnessFactor":1.0
		},
		"emissiveFactor":[0.0,
		0.0,
		0.0],
		"alphaMode":"OPAQUE",
		"doubleSided":false,
		"name":""
	},
	{
		"pbrMetallicRoughness":{
			"baseColorFactor":[1.0,
			1.0,
			1.0,
			1.0],
			"metallicFactor":1.0,
			"roughnessFactor":1.0
		},
		"emissiveFactor":[0.0,
		0.0,
		0.0],
		"alphaMode":"OPAQUE",
		"doubleSided":false,
		"name":""
	},
	{
		"pbrMetallicRoughness":{
			"baseColorFactor":[1.0,
			1.0,
			1.0,
			1.0],
			"metallicFactor":1.0,
			"roughnessFactor":1.0
		},
		"emissiveFactor":[0.0,
		0.0,
		0.0],
		"alphaMode":"OPAQUE",
		"doubleSided":false,
		"name":""
	}]
}